<svg width="249" height="38" viewBox="0 0 249 38" fill="none" xmlns="http://www.w3.org/2000/svg">
<g clip-path="url(#clip0_1267_10655)">
<path d="M9.95758 18.0256H6.29062C5.46195 18.0256 4.80559 17.8178 4.32663 17.4022C3.84514 16.9866 3.60693 16.3429 3.60693 15.4711C3.60693 14.9339 3.67282 14.3764 3.80459 13.8011C3.93637 13.2258 4.08842 12.6405 4.26328 12.0424L0.966313 10.9071C0.733168 11.6065 0.515229 12.3009 0.312495 12.9927C0.109761 13.6845 0.00585938 14.3865 0.00585938 15.0986C0.00585938 15.6967 0.112295 16.277 0.322632 16.8447C0.532968 17.4123 0.882685 17.9217 1.37178 18.3728C1.85834 18.8238 2.50456 19.1837 3.30282 19.4549C4.10363 19.7235 5.09956 19.8578 6.29316 19.8578H13.6727V1.45459H9.96011V18.0256H9.95758Z" fill="white"/>
<path d="M22.5339 16.7382H42.9264C45.2984 16.7382 46.4844 15.6764 46.4844 13.5502V6.87013H40.1971C36.966 6.87013 35.3492 8.35516 35.3492 11.3252V12.7215L37.5109 14.8832H19.9997V1.45459H16.2871V16.7382H22.5313H22.5339ZM39.0618 10.9527C39.0618 9.43979 39.6953 8.68207 40.9624 8.68207H42.7743V13.8999C42.7743 14.5538 42.5767 14.8832 42.1839 14.8832H40.6558L39.0618 13.2892V10.9527Z" fill="white"/>
<path d="M43.4712 2.7419L41.3983 0.668945L39.3887 2.7419L41.3983 4.79459L43.4712 2.7419Z" fill="white"/>
<path d="M24.1484 34.3025H27.1337L30.2457 27.8961L30.4231 28.147L34.8173 34.2873H37.6835V19.7969H30.9704L24.1484 34.305V34.3025ZM33.0155 22.0599H34.9922V30.3137L31.6116 25.296L33.0155 22.0599Z" fill="white"/>
<path d="M19.0063 22.1994H26.102V19.7944H16.3125V34.3077H19.0063V28.6691H19.0139V26.3047H19.0063V22.1994Z" fill="white"/>
<path d="M42.755 31.8825V19.7944H40.0586V34.3077H48.7812V31.8825H42.755Z" fill="white"/>
<path d="M25.5328 25.5317H19.0352V27.9367H25.5328V25.5317Z" fill="white"/>
<path d="M68.4936 30.3443V34.3458L56.9707 22.8203H60.9342L68.4936 30.3443Z" fill="white"/>
<path d="M69.2305 30.3443V34.3458L80.7559 22.8203H76.7925L69.2305 30.3443Z" fill="white"/>
<path d="M76.757 17.0571H80.7559L69.2305 28.5826V24.6166L76.757 17.0571Z" fill="white"/>
<path d="M76.757 16.3199H80.7559L69.2305 4.79443V8.76042L76.757 16.3199Z" fill="white"/>
<path d="M63.6465 8.97608V4.97461L75.1694 16.5001H71.2059L63.6465 8.97608Z" fill="white"/>
<path d="M62.9083 8.97608V4.97461L51.3828 16.5001H55.3463L62.9083 8.97608Z" fill="white"/>
<path d="M55.3843 22.2627H51.3828L62.9083 10.7373V14.7033L55.3843 22.2627Z" fill="white"/>
<path d="M55.3843 23H51.3828L62.9083 34.5254V30.5595L55.3843 23Z" fill="white"/>
<path d="M231.173 29.394C230.869 29.5967 230.532 29.6601 230.182 29.6626C229.232 29.6677 228.282 29.6677 227.331 29.6626C227.032 29.6626 226.749 29.5891 226.505 29.3915C226.176 29.6094 225.808 29.6626 225.431 29.6626C223.264 29.6626 221.1 29.6626 218.933 29.6626C218.915 29.6626 218.9 29.6626 218.877 29.6626C218.317 29.2065 217.757 28.7478 217.197 28.2891C217.197 27.9166 217.197 27.5491 217.197 27.1791C217.197 26.8294 217.197 26.4822 217.273 26.1376C217.463 25.3064 217.993 24.8274 218.817 24.6703C219.052 24.6247 219.293 24.6019 219.531 24.6019C220.656 24.5943 222.719 24.5993 222.719 24.5993V24.9085V25.7397C222.719 25.7397 222.724 27.7367 222.724 28.7351V28.8441H225.479V25.2557H227.086V26.206C227.086 26.206 227.086 27.6201 227.088 28.3271C227.088 28.4006 227.093 28.4766 227.106 28.5501C227.136 28.7351 227.225 28.8187 227.413 28.8416C227.471 28.8492 227.532 28.8542 227.592 28.8542C228.421 28.8542 229.25 28.8542 230.081 28.8542C230.101 28.8542 230.122 28.8542 230.155 28.8492V25.2532H231.756V26.4518C231.756 26.4518 231.759 27.6986 231.761 28.3221C231.761 28.3955 231.766 28.4716 231.779 28.5451C231.807 28.7301 231.898 28.8162 232.083 28.839C232.149 28.8466 232.215 28.8517 232.281 28.8517C233.208 28.8517 234.133 28.8517 235.061 28.8517C235.083 28.8517 235.104 28.8517 235.134 28.8492C235.129 28.834 235.127 28.8213 235.122 28.8137C234.871 28.4589 234.759 28.056 234.739 27.6302C234.719 27.1665 234.719 26.2415 234.719 26.2415V25.4128H236.259V23.4209C236.29 23.4184 236.313 23.4159 236.333 23.4159C237.162 23.4159 237.993 23.4057 238.821 23.4209C239.572 23.4336 240.279 23.6161 240.892 24.0646C241.551 24.5461 241.921 25.2025 242.009 26.0134C242.035 26.2364 242.032 26.4645 242.042 26.6824C241.536 27.1335 241.041 27.5745 240.54 28.0179C240.702 28.2688 240.861 28.5121 241.1 28.6895C241.274 28.8213 241.48 28.8517 241.693 28.8517C241.933 28.8517 242.172 28.8441 242.412 28.8441C242.79 28.8441 243.168 28.8492 243.545 28.8517C243.573 28.8517 243.601 28.8517 243.641 28.8517V21.979H245.261V22.8862C245.261 22.8862 245.261 26.3023 245.261 28.0103C245.261 28.241 245.248 28.469 245.18 28.6895C245.02 29.2192 244.645 29.5055 244.12 29.6094C243.93 29.6449 243.735 29.6601 243.54 29.6626C242.714 29.6677 241.885 29.6576 241.059 29.6677C240.451 29.6753 239.944 29.4599 239.508 29.0494C239.49 29.0342 239.475 29.019 239.457 29.0012C239.452 28.9987 239.447 28.9961 239.435 28.9885C239.186 29.2115 238.935 29.4371 238.679 29.6652H238.591C236.434 29.6652 234.275 29.6652 232.119 29.6652C231.83 29.6652 231.548 29.6272 231.295 29.4726C231.257 29.4498 231.219 29.4219 231.176 29.3915L231.173 29.394ZM221.108 25.4255C221.108 25.4255 221.09 25.4153 221.085 25.4153C220.636 25.4204 220.185 25.4052 219.739 25.4331C219.288 25.461 218.989 25.7296 218.877 26.168C218.839 26.315 218.819 26.4721 218.817 26.6242C218.809 27.2222 218.814 27.8203 218.814 28.4183C218.814 28.431 218.814 28.4462 218.817 28.4614C218.979 28.5957 219.141 28.7275 219.293 28.8492H221.11V25.4255H221.108ZM238.875 28.284C238.479 27.5897 238.086 26.9054 237.699 26.2238H236.343C236.343 26.2466 236.34 26.2643 236.34 26.2795C236.34 26.7331 236.34 27.1893 236.34 27.6429C236.34 27.762 236.356 27.8836 236.376 28.0002C236.472 28.5172 236.794 28.8111 237.321 28.8416C237.62 28.8593 237.922 28.8441 238.236 28.8441C238.444 28.6616 238.662 28.469 238.875 28.2815V28.284ZM239.042 25.4153C239.389 26.0159 239.736 26.614 240.086 27.2171C240.2 27.1183 240.306 27.0246 240.405 26.9409C240.405 26.652 240.415 26.3733 240.403 26.097C240.385 25.7676 240.314 25.4458 240.167 25.1467C239.921 24.65 239.544 24.3079 238.976 24.2496C238.616 24.2141 238.251 24.2344 237.889 24.2319C237.884 24.2319 237.879 24.237 237.876 24.2395V25.4153H239.044H239.042Z" fill="white"/>
<path d="M248.198 29.6625H246.594V21.9814H248.198V29.6625Z" fill="white"/>
<path d="M227.512 22.4857V23.5196H226.706V22.9266C226.361 22.8379 226.128 23.0077 226.123 23.3473C226.121 23.5424 226.123 23.735 226.123 23.9327C226.204 24.0087 226.288 24.0822 226.374 24.1633H227.748V24.7006H225.023V24.1633H225.591C225.459 24.0467 225.345 23.9454 225.249 23.8567C225.249 23.6261 225.231 23.4107 225.254 23.1978C225.295 22.8151 225.54 22.5718 225.921 22.5085C226.024 22.4908 226.131 22.4806 226.237 22.4806C226.663 22.4781 227.515 22.4806 227.515 22.4806V22.4857H227.512Z" fill="white"/>
<path d="M221.275 21.7812C221.586 22.0929 221.903 22.4097 222.21 22.7163C221.898 23.028 221.581 23.3448 221.272 23.654C220.963 23.3549 220.646 23.0458 220.324 22.7341C220.018 23.0432 219.701 23.36 219.379 23.6819C219.062 23.3575 218.756 23.0432 218.441 22.7214C218.753 22.4021 219.062 22.0853 219.371 21.7686C219.691 22.0879 220.005 22.4021 220.314 22.7113C220.641 22.3945 220.96 22.0853 221.275 21.7787V21.7812Z" fill="white"/>
<path d="M228.826 31.462C229.153 31.1452 229.472 30.8386 229.782 30.5396C230.081 30.8386 230.395 31.1528 230.704 31.462C230.4 31.7661 230.083 32.0803 229.782 32.3844C229.47 32.0829 229.151 31.7762 228.826 31.462Z" fill="white"/>
<path d="M232.613 31.4671C232.309 31.7712 231.995 32.0854 231.688 32.3895C231.374 32.0854 231.055 31.7788 230.73 31.4645C231.057 31.1478 231.377 30.8386 231.686 30.5396C231.985 30.8386 232.302 31.1554 232.613 31.4671Z" fill="white"/>
<path d="M198.286 21.9792H199.905V28.8493H203.149C203.139 28.8341 203.134 28.8215 203.123 28.8139C202.69 28.4287 202.452 27.9345 202.353 27.3745C202.282 26.9715 202.247 26.5635 202.196 26.1581C202.186 26.082 202.181 26.006 202.171 25.9274C202.5 25.4789 202.83 25.0329 203.159 24.5869C203.486 24.5869 203.81 24.5869 204.132 24.5869C204.626 24.5894 205.123 24.5818 205.617 24.6046C206.17 24.6274 206.707 24.744 207.188 25.0329C207.672 25.3218 207.987 25.7323 208.042 26.3076C208.096 26.8473 207.981 27.3592 207.72 27.8357C207.515 28.2133 207.242 28.5326 206.904 28.7961C206.889 28.8088 206.874 28.8215 206.844 28.8443H210.207V21.9792H211.823V22.9447C211.823 22.9447 211.823 26.3202 211.823 28.008C211.823 28.2386 211.811 28.4667 211.745 28.6872C211.585 29.2193 211.208 29.5082 210.678 29.6096C210.498 29.6425 210.315 29.6603 210.133 29.6603C206.213 29.6628 202.295 29.6603 198.374 29.6603H198.283V29.5412C198.283 27.3035 198.283 22.8281 198.283 22.8281V21.9741L198.286 21.9792ZM203.732 25.4105C203.732 25.4434 203.732 25.4713 203.737 25.4992C203.772 25.8337 203.805 26.1707 203.848 26.5052C203.891 26.8296 203.927 27.1591 203.998 27.4784C204.089 27.8838 204.264 28.2563 204.57 28.5528C204.735 28.7125 204.93 28.8139 205.153 28.8646C205.381 28.7353 205.577 28.5681 205.744 28.3704C206.225 27.8103 206.479 27.1717 206.431 26.4267C206.41 26.1074 206.289 25.8337 206.028 25.6335C205.805 25.4612 205.546 25.4079 205.27 25.4079C204.783 25.4079 204.297 25.4079 203.81 25.4079C203.785 25.4079 203.76 25.4105 203.732 25.413V25.4105Z" fill="white"/>
<path d="M192.95 29.6676C192.669 29.3837 192.383 29.0949 192.094 28.8034C192.035 28.882 191.982 28.9555 191.924 29.0239C191.61 29.3913 191.197 29.5662 190.73 29.6321C190.563 29.6549 190.393 29.6676 190.226 29.6676C188.336 29.6676 186.445 29.6676 184.552 29.6676H184.473C183.913 29.2089 183.353 28.7527 182.783 28.2864C182.793 27.6909 182.786 27.0928 182.816 26.4973C182.839 26.064 182.976 25.656 183.26 25.3113C183.559 24.9489 183.957 24.7589 184.405 24.6752C184.641 24.6322 184.881 24.6068 185.12 24.6043C186.247 24.5967 188.318 24.6018 188.318 24.6018V25.0072V25.6408C188.318 25.6408 188.32 27.7061 188.32 28.7401V28.8566H188.414C188.744 28.8566 189.073 28.8566 189.4 28.8566C189.577 28.8566 189.755 28.8566 189.93 28.8566C190.229 28.8566 190.454 28.7249 190.573 28.4537C190.657 28.2636 190.713 28.0609 190.753 27.8582C190.877 27.25 190.974 26.6392 191.105 26.031C191.189 25.6382 191.379 25.291 191.701 25.0351C191.97 24.8222 192.284 24.7183 192.616 24.6752C192.839 24.6448 193.064 24.6271 193.29 24.6246C194.494 24.6195 196.752 24.6246 196.752 24.6246V26.0133C196.752 26.0133 196.764 27.1587 196.747 27.7289C196.731 28.218 196.589 28.6691 196.24 29.034C195.933 29.3533 195.545 29.5231 195.117 29.5966C194.871 29.6397 194.618 29.66 194.367 29.6676C193.898 29.6777 193.429 29.6701 192.95 29.6701V29.6676ZM195.135 25.4482C194.587 25.4482 194.05 25.438 193.513 25.4507C193.128 25.4608 192.857 25.6509 192.75 26.0361C192.71 26.1805 192.682 26.3301 192.654 26.4796C192.57 26.9256 192.489 27.3716 192.411 27.7821C192.768 28.1521 193.11 28.5044 193.437 28.8414C193.713 28.8414 193.969 28.8566 194.222 28.8389C194.6 28.811 194.889 28.626 195.023 28.2636C195.084 28.1015 195.127 27.9215 195.13 27.7467C195.142 26.994 195.137 26.2414 195.14 25.4912C195.14 25.4786 195.137 25.4634 195.135 25.4482ZM186.698 28.8516V25.4026C186.225 25.4127 185.756 25.4076 185.289 25.4406C184.96 25.4634 184.694 25.6357 184.555 25.9449C184.489 26.0918 184.43 26.254 184.428 26.4112C184.415 27.0903 184.423 27.772 184.423 28.4689C184.57 28.5905 184.735 28.7223 184.889 28.849H186.701L186.698 28.8516Z" fill="white"/>
<path d="M213.166 21.979H214.773V23.0282C214.773 23.0282 214.775 27.3717 214.775 29.541C214.775 29.579 214.775 29.6145 214.775 29.6601H213.166V21.979Z" fill="white"/>
<path d="M184.968 21.7661C185.288 22.088 185.602 22.4047 185.908 22.7139C186.235 22.3971 186.555 22.088 186.871 21.7788C187.183 22.0905 187.497 22.4047 187.807 22.7164C187.492 23.0307 187.178 23.3474 186.866 23.6566C186.555 23.3525 186.238 23.0433 185.914 22.7316C185.604 23.0408 185.288 23.3576 184.968 23.6794C184.654 23.3576 184.347 23.0433 184.033 22.7215C184.345 22.4022 184.654 22.0854 184.966 21.7661H184.968Z" fill="white"/>
<path d="M166.299 24.5892C166.467 24.5892 166.629 24.5892 166.791 24.5892C167.442 24.5943 168.096 24.5841 168.748 24.6069C169.305 24.6247 169.842 24.7438 170.329 25.0352C170.813 25.3241 171.127 25.7347 171.185 26.3074C171.239 26.8548 171.122 27.3692 170.856 27.8507C170.651 28.2207 170.38 28.5349 170.048 28.7985C170.032 28.8111 170.017 28.8238 169.987 28.8466H173.35V21.9815H174.969V22.9471C174.969 22.9471 174.969 26.277 174.971 27.9419C174.971 28.241 174.954 28.5375 174.842 28.8188C174.84 28.8264 174.842 28.834 174.842 28.8492H177.44V21.979H179.051V23.279C179.051 23.279 179.057 26.4366 179.057 28.0179C179.057 28.2486 179.041 28.4741 178.975 28.6971C178.816 29.2268 178.438 29.5131 177.914 29.6119C177.729 29.6474 177.539 29.6652 177.351 29.6652C169.558 29.6652 161.763 29.6652 153.971 29.6652H153.877V29.541C153.877 27.3058 153.877 22.8381 153.877 22.8381V21.979H155.494V28.8492H158.796C158.411 28.4564 158.02 28.056 157.628 27.653C157.64 27.1715 157.592 26.6824 157.706 26.2035C157.896 25.3976 158.418 24.9339 159.216 24.7793C159.465 24.7311 159.721 24.7083 159.974 24.7058C161.066 24.6982 163.084 24.7032 163.084 24.7032V24.8198V26.0134C163.084 26.0134 163.089 27.169 163.089 27.7468C163.089 28.1142 163.104 28.4842 162.959 28.8466H166.289C166.289 28.8466 166.277 28.8238 166.269 28.8162C165.836 28.431 165.598 27.9369 165.496 27.3768C165.425 26.9713 165.39 26.5608 165.336 26.1528C165.326 26.0793 165.321 26.0058 165.311 25.9298C165.641 25.4812 165.97 25.0352 166.299 24.5892ZM168.294 28.8644C168.525 28.7351 168.72 28.5653 168.889 28.3651C169.366 27.8076 169.622 27.169 169.571 26.429C169.551 26.1046 169.427 25.8234 169.158 25.6232C168.938 25.4584 168.684 25.4052 168.416 25.4052C167.926 25.4052 167.437 25.4052 166.948 25.4052C166.923 25.4052 166.9 25.4077 166.87 25.4103C166.885 25.5497 166.898 25.6789 166.913 25.8107C166.969 26.2871 167.014 26.7661 167.088 27.24C167.154 27.6733 167.311 28.0788 167.594 28.4234C167.777 28.6464 168.008 28.7959 168.294 28.8618V28.8644ZM159.249 27.9445C159.559 28.2536 159.855 28.5501 160.152 28.8466C160.458 28.8466 160.77 28.8542 161.082 28.8466C161.269 28.8416 161.388 28.725 161.434 28.5476C161.459 28.4513 161.469 28.3499 161.469 28.2511C161.472 27.3667 161.469 26.4848 161.469 25.6003C161.469 25.5699 161.467 25.5395 161.464 25.5091C161.444 25.5066 161.434 25.504 161.424 25.504C161.021 25.504 160.618 25.499 160.215 25.5142C159.713 25.5345 159.376 25.8259 159.295 26.3226C159.252 26.5836 159.257 26.8522 159.252 27.1158C159.244 27.3996 159.252 27.6809 159.252 27.9445H159.249Z" fill="white"/>
<path d="M149.15 31.7612C149.064 31.5636 148.98 31.3684 148.887 31.1581C149.018 31.1581 149.135 31.1708 149.249 31.1581C149.842 31.0846 150.248 30.7501 150.498 30.2204C150.638 29.9265 150.701 29.6122 150.704 29.2904C150.709 28.2945 150.706 27.6204 150.709 26.627C150.709 25.9909 150.709 25.3574 150.709 24.7213V24.6123H152.321V24.8657C152.321 24.8657 152.321 25.4613 152.321 25.7831C152.331 27.035 152.326 27.9676 152.321 29.2194C152.321 29.6984 152.234 30.1672 151.991 30.5879C151.649 31.1809 151.119 31.5281 150.468 31.6979C150.037 31.8094 149.599 31.8271 149.15 31.7663V31.7612Z" fill="white"/>
<path d="M160.868 22.6938C160.551 23.0029 160.232 23.3096 159.922 23.6111C159.611 23.3096 159.294 23.0029 158.975 22.6938C159.302 22.377 159.623 22.0704 159.958 21.746C160.239 22.0374 160.548 22.3592 160.852 22.671C161.184 22.3491 161.499 22.0425 161.815 21.7358C162.122 22.0526 162.431 22.3745 162.733 22.6862C162.441 22.9877 162.13 23.3096 161.826 23.6213C161.501 23.307 161.182 22.9979 160.868 22.6938Z" fill="white"/>
<path d="M151.561 37.0371L150.765 35.8486H149.772V37.0371H149.105V33.4487H150.674C151.766 33.4487 152.223 33.8137 152.223 34.617C152.223 35.2125 151.982 35.58 151.475 35.7447L152.347 37.0371H151.564H151.561ZM149.772 35.2733H150.71C151.3 35.2733 151.531 35.0985 151.531 34.6525C151.531 34.2064 151.3 34.0316 150.71 34.0316H149.772V35.2733Z" fill="white"/>
<path d="M155.783 34.0417H153.649V34.9338H155.623V35.5039H153.649V36.4416H155.823V37.0371H152.982V33.4487H155.78V34.0443L155.783 34.0417Z" fill="white"/>
<path d="M159.093 36.2465H157.344L157.022 37.0371H156.27L157.782 33.4487H158.659L160.177 37.0371H159.42L159.098 36.2465H159.093ZM158.862 35.694L158.216 34.1203L157.57 35.694H158.862Z" fill="white"/>
<path d="M161.493 36.4365H163.388V37.0371H160.826V33.4487H161.493V36.4365Z" fill="white"/>
<path d="M168.119 34.0417H165.985V34.9338H167.959V35.5039H165.985V36.4416H168.159V37.0371H165.318V33.4487H168.116V34.0443L168.119 34.0417Z" fill="white"/>
<path d="M171.377 34.3128C170.992 34.1075 170.52 33.9732 170.158 33.9732C169.773 33.9732 169.512 34.1177 169.512 34.4091C169.512 34.5992 169.613 34.6802 170.183 34.8348L170.573 34.9413C171.369 35.1617 171.737 35.3569 171.757 35.9777C171.757 36.6949 171.182 37.0852 170.274 37.0852C169.684 37.0852 169.086 36.9154 168.635 36.6088L168.941 36.107C169.367 36.3579 169.894 36.5023 170.33 36.5023C170.766 36.5023 171.052 36.3477 171.052 36.0158C171.052 35.7699 170.913 35.699 170.401 35.5697L169.996 35.4684C169.144 35.253 168.807 35.0426 168.787 34.4598C168.787 34.1101 168.921 33.849 169.182 33.6691C169.443 33.4892 169.788 33.3979 170.208 33.3979C170.725 33.3979 171.265 33.5424 171.671 33.7831L171.379 34.3153L171.377 34.3128Z" fill="white"/>
<path d="M175.144 34.0317H173.996V37.0347H173.33V34.0317H172.182V33.4463H175.144V34.0317Z" fill="white"/>
<path d="M177.94 36.2465H176.192L175.87 37.0371H175.117L176.63 33.4487H177.507L179.025 37.0371H178.267L177.945 36.2465H177.94ZM177.71 35.694L177.063 34.1203L176.417 35.694H177.71Z" fill="white"/>
<path d="M181.97 34.0317H180.822V37.0347H180.156V34.0317H179.008V33.4463H181.97V34.0317Z" fill="white"/>
<path d="M185.41 34.0417H183.276V34.9338H185.25V35.5039H183.276V36.4416H185.45V37.0371H182.609V33.4487H185.407V34.0443L185.41 34.0417Z" fill="white"/>
<path d="M190.182 34.3562C189.931 34.1306 189.612 34.0115 189.264 34.0115C188.588 34.0115 188.018 34.5234 188.018 35.2406C188.018 35.9122 188.545 36.4595 189.226 36.4595C189.586 36.4595 189.888 36.3734 190.128 36.1935V35.5827H189.262V35.0455H190.759V36.5381C190.349 36.8878 189.802 37.0855 189.226 37.0855C188.195 37.1058 187.288 36.234 187.313 35.2406C187.293 34.1585 188.241 33.3805 189.262 33.3957C189.769 33.3957 190.245 33.5757 190.615 33.9026L190.179 34.3536L190.182 34.3562Z" fill="white"/>
<path d="M194.484 34.0417H192.35V34.9338H194.324V35.5039H192.35V36.4416H194.524V37.0371H191.684V33.4487H194.481V34.0443L194.484 34.0417Z" fill="white"/>
<path d="M198.498 33.4487V37.0371H197.796L195.9 34.4599V37.0371H195.244V33.4487H195.946L197.847 36.026V33.4487H198.498Z" fill="white"/>
<path d="M202.259 34.0417H200.125V34.9338H202.1V35.5039H200.125V36.4416H202.3V37.0371H199.459V33.4487H202.257V34.0443L202.259 34.0417Z" fill="white"/>
<path d="M205.473 37.0371L204.677 35.8486H203.684V37.0371H203.018V33.4487H204.586C205.678 33.4487 206.135 33.8137 206.135 34.617C206.135 35.2125 205.894 35.58 205.387 35.7447L206.259 37.0371H205.476H205.473ZM203.684 35.2733H204.622C205.212 35.2733 205.443 35.0985 205.443 34.6525C205.443 34.2064 205.212 34.0316 204.622 34.0316H203.684V35.2733Z" fill="white"/>
<path d="M209.487 36.2465H207.739L207.417 37.0371H206.664L208.177 33.4487H209.054L210.572 37.0371H209.814L209.492 36.2465H209.487ZM209.257 35.694L208.61 34.1203L207.964 35.694H209.257Z" fill="white"/>
<path d="M211.883 36.4365H213.779V37.0371H211.217V33.4487H211.883V36.4365Z" fill="white"/>
<path d="M218.223 36.2465H216.475L216.153 37.0371H215.4L216.913 33.4487H217.79L219.308 37.0371H218.55L218.229 36.2465H218.223ZM217.993 35.694L217.347 34.1203L216.7 35.694H217.993Z" fill="white"/>
<path d="M223.014 35.4153C223.014 36.4873 222.438 37.0854 221.415 37.0854C220.391 37.0854 219.811 36.4797 219.811 35.4153V33.4463H220.477V35.4153C220.477 36.092 220.822 36.4721 221.415 36.4721C222.008 36.4721 222.347 36.092 222.347 35.4153V33.4463H223.014V35.4153Z" fill="white"/>
<path d="M226.628 34.0317H225.48V37.0347H224.814V34.0317H223.666V33.4463H226.628V34.0317Z" fill="white"/>
<path d="M230.522 37.0371H229.856V35.5293H227.932V37.0371H227.266V33.4487H227.932V34.9312H229.856V33.4487H230.522V37.0371Z" fill="white"/>
<path d="M233.265 37.0881C232.234 37.1083 231.327 36.2366 231.352 35.2432C231.327 34.2498 232.234 33.378 233.265 33.3983C234.292 33.378 235.189 34.2498 235.166 35.2432C235.186 36.2366 234.289 37.1083 233.265 37.0881ZM233.265 36.4621C233.942 36.4621 234.469 35.9147 234.469 35.2432C234.469 34.5716 233.942 34.0242 233.265 34.0242C232.589 34.0242 232.057 34.5716 232.057 35.2432C232.057 35.9147 232.584 36.4621 233.265 36.4621Z" fill="white"/>
<path d="M238.452 37.0371L237.656 35.8486H236.663V37.0371H235.996V33.4487H237.565C238.657 33.4487 239.113 33.8137 239.113 34.617C239.113 35.2125 238.872 35.58 238.366 35.7447L239.237 37.0371H238.454H238.452ZM236.663 35.2733H237.6C238.191 35.2733 238.421 35.0985 238.421 34.6525C238.421 34.2064 238.191 34.0316 237.6 34.0316H236.663V35.2733Z" fill="white"/>
<path d="M240.54 37.0371H239.873V33.4487H240.54V37.0371Z" fill="white"/>
<path d="M244.154 34.0317H243.006V37.0347H242.339V34.0317H241.191V33.4463H244.154V34.0317Z" fill="white"/>
<path d="M248.199 33.4487L246.712 35.765V37.0371H246.04V35.77L244.553 33.4487H245.354L246.38 35.0681L247.411 33.4487H248.202H248.199Z" fill="white"/>
<path d="M172.097 12.0929V9.91098H166.656V5.41281H174.175V3.19287H163.59V18.9403H175.797V16.7178H166.656V12.0929H172.097Z" fill="white"/>
<path d="M194.111 12.0704L199.012 18.9203H202.21V3.19824H194.721L190.631 11.6219L187.111 18.938H190.441L193.913 11.7891L194.113 12.0679L194.111 12.0704ZM197.002 5.39538H199.21V14.4905L195.439 8.89254L197.005 5.39538H197.002Z" fill="white"/>
<path d="M178.638 3.54533C177.581 3.93813 176.679 4.49818 175.954 5.21282C175.232 5.92492 174.672 6.79415 174.295 7.80022C173.912 8.81896 173.717 9.96947 173.717 11.2214C173.717 12.3871 173.909 13.4616 174.29 14.4094C174.667 15.3521 175.217 16.1681 175.924 16.8396C176.631 17.5137 177.51 18.0484 178.537 18.426C179.571 18.8062 180.767 19.0013 182.092 19.0013C182.977 19.0013 185.549 18.9658 186.786 18.9481L187.112 18.943V9.43983H181.408V11.898H184.469V16.4747L184.132 16.5938C183.876 16.685 183.717 16.6825 182.956 16.6749H182.921C182.794 16.6749 182.703 16.6724 182.64 16.6724C180.871 16.6724 179.368 16.1225 178.291 15.0834C177.29 14.1154 176.781 12.6861 176.781 10.8387C176.781 9.75153 176.938 9.2447 177.196 8.53766C177.478 7.76727 177.888 7.12106 178.415 6.61676C178.942 6.11245 179.581 5.73486 180.316 5.49918C181.028 5.26857 181.834 5.152 182.713 5.152C184.074 5.152 184.936 5.36487 186.157 5.81089L186.527 3.7506C185.311 3.23109 184.251 2.94727 182.315 2.94727C180.939 2.94727 179.703 3.14747 178.636 3.54533H178.638Z" fill="white"/>
<path d="M155.399 13.2693L159.892 18.9407H163.592L158.904 13.2718L161.671 10.1953V6.68039C161.671 4.75695 160.108 3.19336 158.184 3.19336H149.799V18.9407H152.865V13.1932H155.341L155.402 13.2718L155.399 13.2693ZM152.771 10.8238V5.1092H156.484C157.888 5.1092 158.904 6.19129 158.904 6.92114V9.26778L157.523 10.8238H152.771Z" fill="white"/>
<path d="M119.061 24.5513L131.709 37.1994V32.1563L124.055 24.5513H119.061Z" fill="white"/>
<path d="M132.965 32.1563V37.1994L145.613 24.5513H140.618L132.965 32.1563Z" fill="white"/>
<path d="M131.708 11.2365V10.9704V7.73428V7.72667V5.97556L126.624 0.924941V0.935078L121.629 0.894531L123.426 2.69126L124.878 4.14335L125.94 5.2077L127.392 6.65725L128.457 7.72161L128.462 7.72667H121.009L121.016 7.73428L117.453 11.2365H131.708Z" fill="white"/>
<path d="M123.428 20.6965L124.88 19.247L125.945 18.1852L127.392 16.7331L128.456 15.6687L129.908 14.2167L131.707 12.4199H126.71L121.659 17.5009H121.672L121.629 22.4958L123.428 20.6965Z" fill="white"/>
<path d="M143.657 7.73428L143.664 7.72667H136.525H136.209L136.216 7.72161L137.281 6.65725L138.733 5.2077L139.794 4.14335L141.244 2.69126L143.043 0.894531L138.048 0.935078V0.924941L132.965 5.97556V7.73428V10.9704V11.2365H147.22L143.657 7.73428Z" fill="white"/>
<path d="M136.146 15.6687L137.21 16.7331L138.657 18.1852L139.722 19.247L141.174 20.6965L142.973 22.4958L142.932 17.5009H142.943L137.892 12.4199H132.895L134.694 14.2167L136.146 15.6687Z" fill="white"/>
<path d="M134.061 15.6841H130.596L128.566 17.757H136.108L134.061 15.6841Z" fill="white"/>
<path d="M134.061 18.981H130.596L128.566 21.0539H136.108L134.061 18.981Z" fill="white"/>
<path d="M134.061 22.2554H130.596L128.566 24.3283H136.108L134.061 22.2554Z" fill="white"/>
<path d="M128.566 27.6149H136.108L134.061 25.542H130.596L128.566 27.6149Z" fill="white"/>
<path d="M98.9352 0H98.4766V38H98.9352V0Z" fill="white"/>
</g>
<defs>
<clipPath id="clip0_1267_10655">
<rect width="248.197" height="38" fill="white"/>
</clipPath>
</defs>
</svg>
