<svg version="1.2" xmlns="http://www.w3.org/2000/svg" viewBox="0 0 2048 2048" width="400" height="400">
	<title>أيقونية بدون</title>
	<style>
		.s0 { fill: #225455 } 
	</style>
	<g id="Layer 1">
		<g id="&lt;Group&gt;">
			<g id="&lt;Group&gt;">
				<path id="&lt;Path&gt;" class="s0" d="m2021.2 1309.4v438.9c0 32.7-39.5 49-62.5 25.9l-501.9-501.8c-23.8-23.9-62.5-23.9-86.4 0l-502.9 502.7c-23.1 23-62.5 6.7-62.5-25.9l-0.1-437.5c0-31.6 12.6-62 34.9-84.4l529.8-531.9c23.9-23.9 62.6-23.9 86.5-0.1l530 529.5c22.5 22.4 35.1 52.9 35.1 84.6z"/>
				<path id="&lt;Path&gt;" class="s0" d="m634 740.6l-0.2 439c-0.1 31.7-12.7 62.1-35.1 84.5l-509.9 510.1c-23.1 23.1-62.5 6.7-62.5-25.9v-438.9c0-31.7 12.6-62.2 35-84.6l510.1-510.1c23.1-23.1 62.6-6.7 62.6 25.9z"/>
				<path id="&lt;Path&gt;" class="s0" d="m977.3 794.4l-197.2-197.1c-25.2-25.2-25.2-66.1 0-91.3l197.2-197.1c25.2-25.3 66.1-25.3 91.3 0l197.1 197.1c25.2 25.2 25.2 66.1 0 91.3l-197.1 197.1c-25.2 25.3-66.1 25.3-91.3 0z"/>
			</g>
		</g>
	</g>
</svg>