<svg version="1.2" xmlns="http://www.w3.org/2000/svg" viewBox="0 0 2048 2048" width="400" height="400">
	<title>أيقونية بدون</title>
	<style>
		.s0 { fill: #e8e8e8 } 
		.s1 { fill: #225455 } 
	</style>
	<g id="Layer 1">
		<path id="Shape 1" class="s0" d="m384 16h1282c201.6 0 365 163.4 365 365v1286c0 201.6-163.4 365-365 365h-1282c-201.6 0-365-163.4-365-365v-1286c0-201.6 163.4-365 365-365z"/>
		<g id="&lt;Group&gt;">
			<g id="&lt;Group&gt;">
				<path id="&lt;Path&gt;" class="s1" d="m1791.1 1226.8v337.6c0 25.1-30.3 37.7-48.1 19.9l-385.9-386c-18.4-18.3-48.1-18.3-66.5 0l-386.8 386.6c-17.7 17.8-48.1 5.2-48.1-19.9v-336.4c0-24.4 9.7-47.7 26.9-65l407.4-409c18.4-18.4 48.2-18.4 66.5-0.1l407.7 407.2c17.2 17.3 26.9 40.7 26.9 65.1z"/>
				<path id="&lt;Path&gt;" class="s1" d="m724.2 789.4l-0.1 337.6c0 24.4-9.7 47.7-27 65l-392.1 392.3c-17.8 17.7-48.1 5.2-48.1-19.9v-337.6c0-24.4 9.7-47.8 26.9-65.1l392.3-392.3c17.8-17.7 48.1-5.1 48.1 20z"/>
				<path id="&lt;Path&gt;" class="s1" d="m988.3 830.8l-151.6-151.6c-19.4-19.4-19.4-50.9 0-70.3l151.6-151.6c19.4-19.4 50.8-19.4 70.2 0l151.6 151.6c19.4 19.4 19.4 50.9 0 70.3l-151.6 151.6c-19.4 19.4-50.8 19.4-70.2 0z"/>
			</g>
		</g>
	</g>
</svg>